<svg xmlns="http://www.w3.org/2000/svg" version="1.1" xmlns:xlink="http://www.w3.org/1999/xlink" xmlns:svgjs="http://svgjs.dev/svgjs" width="1500" height="1687" viewBox="0 0 1500 1687"><g transform="matrix(1,0,0,1,0.00011015625000254659,0)"><svg viewBox="0 0 320 360" data-background-color="#ffffff" preserveAspectRatio="xMidYMid meet" height="1687" width="1500" xmlns="http://www.w3.org/2000/svg" xmlns:xlink="http://www.w3.org/1999/xlink"><g id="tight-bounds" transform="matrix(1,0,0,1,0.000023499999997511622,0)"><svg viewBox="0 0 320 360" height="360" width="320"><g><svg></svg></g><g><svg viewBox="0 0 320 360" height="360" width="320"><g><path transform="translate(-74.99272,-51.79039) scale(4.65793,4.65793)" d="M20.6 59.9l0.8 1-0.4-1.3c-0.1-0.6-0.8 0.1-0.4 0.3M21.5 59.3c0.3 0.5 0.6 1 0.6 1.5 0 0.7 0.6 1 1.1 1.2-0.7-0.8-1.1-3-1.7-2.7M59.9 16.9c1.7 0 3.3-0.2 5.1 0.2 4.4 1.1 8.1 3.3 10.6 6.4l7 11.2c0.3 2.8 0.9 5.9 0.8 9.3 0.7 0 0.6-1 1.4-1.2-0.8 2-1.2 4.5-1.4 7.4-0.5-1.6 0-4 0.1-5.3-0.7 1.1-1.1 0.3-1.1-0.2 0.1-0.8-0.3-0.7-0.6-1-1.1-1-1.8-2.1-2.6-3.8 0.5-1.3 0.6-3.2-1-4.2-0.5-0.3-1.1-0.8-1.4-1.6-0.4-1.1-1.1-2.4-0.9-4.1 0.1-0.5-1.5 1.1-2.4 0.4-3.9-2.7-7.8-5.8-12.5-8.4-2.5 0-4.3-0.9-5.2-2-0.8-1-0.2-2.3 1-2.4 0.7 0 1.5-0.2 2.1 0.2 0.1-0.4 0.5-0.9 1-0.9M50 14.6l0.2 0.1c1 0.2 1.5 1.6 2.6 1.1 0 0.7 0.1 1.4-0.1 1.9-0.3 0.8-1.2 0.8-1.9 0.8-6.7-0.4-10.6 2.4-14.7 4.8-1.1 0.7-2.3 1.2-3.2 2.1-4.3 4-9 7.7-10.1 15.1l-0.9 8.2c-0.1 0.9-1.1 1.8-0.9 2.9l0.7 4.9c-0.7-0.7-1.1 0.2-0.9 0.6 0.1 0.3 0.5 1.3 1.1 0.4 0.8 1.5 1.6 4.4 2.7 5.7 3.4 4 7.8 7.6 11.4 11.2 0.9-0.2 1.6-0.2 1.8-0.8 0.3 0.6-0.3 1.2-0.8 1.3 1.6 1 3.4 1.9 5.8 2.1 3.1 0.2 6 0.7 8.7 1.4 1.4-0.4 2.8-0.6 4.3-0.7 0.5 0 0.8-0.8 1.4-1l0.1-1c0.6 0.9 0.5-0.3 0.1-0.9 0.7 0.6 0.9 1.1 1.2 1.5 0-0.3 0.8-1.4 0.8-0.1l0.2-1.3c0.3-0.2 0.4 1.1 0.7 0.2 0.3-0.9 0.9-0.2 1.5-0.5-0.2 0.4-0.1 1.2 0.6 0.7l0.8-0.7c0.5 1.2 1.3 0.7 1.7 0.5 4.4-2.8 8.8-6.1 13-9.4l-0.1 1.3 0.5-1.6c0.5 0.5 0.9 0.1 1.1-0.2 0.6-1 1.4-2 2.7-2.9-1.6 4.3-3.5 7.7-5.9 10.5l-1 1.2c0 0.7-0.2 1.6-1 1.7-0.4 0.1-1.2-0.2-1.8 0.4-0.3 0.4 0.7 1.2-0.1 0.6-0.7-0.5-1.4 0-2.2 0.2-0.6 0.2 0.4 0.8 0.6 1.2 0.2 0.4 0.4 0.8 0.3 1.3l-1.1-1.2c-1.3 0.7-2.1 2-3.2 3-0.5 0.4-0.3 1.1-0.3 1.7-0.7 0-1.5-0.2-1.9 0.2-0.3 0.4-0.2 1-0.2 1.6-1-0.1-1.1-1.6-2-1.3-0.9 0.2-1.9 0.3-2.7 0.8 0.6 1.2-1 0.5-0.8 0.7-1.5-0.9-2.8-1.6-4.4-1-3.4-1.1-7.6-0.6-10.7-0.2 0-0.5 0.1-1-0.1-1.1-0.2 0.5-0.8 0.3-0.7 0.3-1.9-1.3-3.8-2.1-5.8-3.2-1.8 0.2-3.5-0.7-4-1.2-1.4-1.3-3-0.6-4.3-0.9-2.8-0.7-3.8-3.6-4.1-5.6-0.2-1-1-1.4-1.3-1.3-1.3-4.2-3.3-8-4.9-11.9-0.4-1-0.3-2-0.3-3.1 0.5 0.2 1 0.1 0.9-0.6-0.5-3.3-1.7-5.8-3-8.2 0.7-3.4 0.8-7.4 2.4-10.4 1.4-2.7 4-4.1 5.8-6.4 0.6-0.8 0.6-1.9 1.2-2.6 2-2 4-4.1 6.2-5.9 1-0.8 2.2 0 3.7-0.3 0.5-1.8 2.5-3.4 4.4-2.9 0.8 0.2 2.4-1.9 2.9-2.1 0.8-0.3 0.4 0.8 0.4 1.5 1.9-1.5 4.5-2.3 6.9-3.2" fill="#ff5858" fill-rule="nonzero" stroke="none" stroke-width="1" stroke-linecap="butt" stroke-linejoin="miter" stroke-miterlimit="10" stroke-dasharray="" stroke-dashoffset="0" font-family="none" font-weight="none" font-size="none" text-anchor="none" style="mix-blend-mode: normal" data-fill-palette-color="tertiary"></path></g><g transform="matrix(1,0,0,1,80.9223085717253,90)"><svg viewBox="0 0 158.1553828565494 180" height="180" width="158.1553828565494"><g><svg viewBox="0 0 158.1553828565494 180" height="180" width="158.1553828565494"><g><svg viewBox="0 0 192 218.51927753446572" height="180" width="158.1553828565494"><g transform="matrix(1,0,0,1,0,109.99059923022632)"><svg viewBox="0 0 192 108.52867830423939" height="108.52867830423939" width="192"><g id="textblocktransform"><svg viewBox="0 0 192 108.52867830423939" height="108.52867830423939" width="192" id="textblock"><g><svg viewBox="0 0 192 108.52867830423939" height="108.52867830423939" width="192"><g transform="matrix(1,0,0,1,0,0)"><svg width="192" viewBox="3.4 -33.5 60.15 34" height="108.52867830423939" data-palette-color="#ff5858"><path d="M28-9.95L32-8.45Q30.95-5.65 29-3.63 27.05-1.6 24.43-0.55 21.8 0.5 18.7 0.5L18.7 0.5Q14 0.5 10.58-1.58 7.15-3.65 5.28-7.45 3.4-11.25 3.4-16.5L3.4-16.5Q3.4-21.75 5.28-25.55 7.15-29.35 10.58-31.43 14-33.5 18.6-33.5L18.6-33.5Q21.8-33.5 24.3-32.63 26.8-31.75 28.58-30.03 30.35-28.3 31.4-25.8L31.4-25.8 27.45-23.95Q26.35-26.8 24.28-28.28 22.2-29.75 18.9-29.75L18.9-29.75Q15.55-29.75 13-28.18 10.45-26.6 9.03-23.65 7.6-20.7 7.6-16.5L7.6-16.5Q7.6-12.35 8.95-9.38 10.3-6.4 12.8-4.83 15.3-3.25 18.7-3.25L18.7-3.25Q22-3.25 24.45-4.93 26.9-6.6 28-9.95L28-9.95ZM51.4 0L39.7 0 39.7-33 51.45-33Q57.3-33 60-30.55 62.7-28.1 62.7-23.9L62.7-23.9Q62.7-21.4 61.25-19.38 59.8-17.35 57.15-16.8L57.15-16.8 57.15-16.75Q60.1-16.2 61.82-14.08 63.55-11.95 63.55-9.25L63.55-9.25Q63.55-5.05 60.4-2.53 57.25 0 51.4 0L51.4 0ZM43.7-14.75L43.7-3.75 52.35-3.75Q55.9-3.75 57.62-5.2 59.35-6.65 59.35-9.25L59.35-9.25Q59.35-11.9 57.62-13.33 55.9-14.75 52.35-14.75L52.35-14.75 43.7-14.75ZM43.7-29.25L43.7-18.5 51.5-18.5Q58.5-18.5 58.5-23.9L58.5-23.9Q58.5-29.25 51.5-29.25L51.5-29.25 43.7-29.25Z" opacity="1" transform="matrix(1,0,0,1,0,0)" fill="#ff5858" class="wordmark-text-0" data-fill-palette-color="primary" id="text-0"></path></svg></g></svg></g></svg></g></svg></g><g transform="matrix(1,0,0,1,36.672,0)"><svg viewBox="0 0 118.656 94.15366037735849" height="94.15366037735849" width="118.656"><g><svg xmlns="http://www.w3.org/2000/svg" xmlns:xlink="http://www.w3.org/1999/xlink" version="1.1" x="0" y="0" viewBox="2.3 12.100000000000001 95.40000000000002 75.70000000000002" enable-background="new 0 0 100 100" xml:space="preserve" height="94.15366037735849" width="118.656" class="icon-icon-0" data-fill-palette-color="accent" id="icon-0"><path d="M84.7 25.7c-0.5-2.2-1.3-4.4-2.4-6.5 3.2 1.2 5.8 3.5 7.4 6.5H84.7zM72.2 19.2c-3.2 1.2-5.9 3.5-7.6 6.5h5C70.2 23.4 71.1 21.2 72.2 19.2zM76.1 18.3c-1.5 2.3-2.7 4.8-3.4 7.4h9c-0.7-2.6-1.8-5.1-3.3-7.4-0.4 0-0.8-0.1-1.3-0.1C76.8 18.3 76.5 18.3 76.1 18.3zM15.4 66.2V72h61.8v-5-2.9V57c2.6 0 5.2-0.4 7.7-1.2v8.4 2.9 4.5c0 1 0.3 2 1 2.7l3.9 4.8c0.3 0.4 0.5 0.8 0.5 1.3v2.2c0 2.9-2.3 5.2-5.2 5.2H7.5c-2.9 0-5.2-2.3-5.2-5.2v-2.2c0-0.5 0.2-0.9 0.5-1.3l4-4.9c0.6-0.8 1-1.7 1-2.7v-5.7-1.7V32.6c0-4.2 3.4-7.7 7.7-7.7H54c-0.8 2.5-1.2 5.1-1.2 7.7H15.4c0 0 0 0 0 0v31.6V66.2zM38 80.3c0 1.5 1.2 2.7 2.7 2.7H52c1.5 0 2.7-1.2 2.7-2.7v-0.6H38V80.3zM68.8 32.8c0-1.4 0.1-2.8 0.3-4.2h-5.7c-0.4 1.3-0.6 2.6-0.6 4 0 1.4 0.2 2.7 0.6 3.9h5.6C68.9 35.3 68.8 34 68.8 32.8zM64.6 39.5c1.6 2.9 4.2 5.2 7.3 6.5-1.1-2.1-1.8-4.2-2.4-6.5H64.6zM71.7 32.8c0 1.3 0.1 2.5 0.3 3.8h10.3c0.2-1.4 0.3-2.7 0.3-4.1 0-1.3-0.1-2.5-0.3-3.8H72.1C71.8 30 71.7 31.4 71.7 32.8zM91.7 18.1c8 8 8 21 0 28.9-6.7 6.7-17 7.8-24.8 3.2l0 0c-3.1 2.3-6.4 2.7-8.7 2.4-0.8-0.1-0.9-1.2-0.2-1.5 2.1-1 3.4-3.1 4.2-4.8l-0.2-0.2c-7.1-8-6.8-20.3 0.9-28C70.7 10.1 83.7 10.1 91.7 18.1zM89.4 20.4c-3.3-3.3-7.6-5.1-12.2-5.1-4.6 0-8.9 1.8-12.2 5.1C61.8 23.7 60 28 60 32.6c0 4.6 1.8 8.9 5.1 12.2 3.3 3.3 7.6 5.1 12.2 5.1 4.6 0 8.9-1.8 12.2-5.1 3.3-3.3 5.1-7.6 5.1-12.2C94.5 28 92.7 23.7 89.4 20.4zM75.9 46.9c0.4 0 0.9 0.1 1.3 0.1 0.3 0 0.7 0 1 0 1.5-2.3 2.7-4.8 3.4-7.4h-9.1C73.3 42.1 74.4 44.6 75.9 46.9zM85.5 32.4c0 1.4-0.1 2.8-0.3 4.1H91c0.4-1.3 0.6-2.6 0.6-3.9 0-1.4-0.2-2.7-0.6-4h-5.7C85.4 29.9 85.5 31.1 85.5 32.4zM82.1 46.1c3.3-1.2 6-3.6 7.7-6.6h-5.1C84.1 41.8 83.2 44 82.1 46.1z" fill="#ff5858" data-fill-palette-color="accent"></path></svg></g></svg></g><g></g></svg></g></svg></g></svg></g></svg></g><defs></defs></svg><rect width="320" height="360" fill="none" stroke="none" visibility="hidden"></rect></g></svg></g></svg>